<svg width="60" height="60" viewBox="0 0 60 60" fill="none" xmlns="http://www.w3.org/2000/svg">
<path d="M30.001 34.9998H32.501C35.251 34.9998 37.501 32.7498 37.501 29.9998V4.99976H15.001C11.251 4.99976 7.97606 7.07473 6.27606 10.1247" stroke="white" stroke-width="1.5" stroke-linecap="round" stroke-linejoin="round"/>
<path d="M5.00079 42.4999C5.00079 46.6499 8.35079 49.9999 12.5008 49.9999H15.0008C15.0008 47.2499 17.2508 44.9999 20.0008 44.9999C22.7508 44.9999 25.0008 47.2499 25.0008 49.9999H35.0008C35.0008 47.2499 37.2508 44.9999 40.0008 44.9999C42.7508 44.9999 45.0008 47.2499 45.0008 49.9999H47.5008C51.6508 49.9999 55.0008 46.6499 55.0008 42.4999V34.9999H47.5008C46.1258 34.9999 45.0008 33.8749 45.0008 32.4999V24.9999C45.0008 23.6249 46.1258 22.4999 47.5008 22.4999H50.7257L46.4508 15.0249C45.5508 13.4749 43.9009 12.4999 42.1009 12.4999H37.5008V29.9999C37.5008 32.7499 35.2508 34.9999 32.5008 34.9999H30.0008" stroke="white" stroke-width="1.5" stroke-linecap="round" stroke-linejoin="round"/>
<path d="M19.9996 55C22.7611 55 24.9996 52.7614 24.9996 50C24.9996 47.2386 22.7611 45 19.9996 45C17.2382 45 14.9996 47.2386 14.9996 50C14.9996 52.7614 17.2382 55 19.9996 55Z" stroke="white" stroke-width="1.5" stroke-linecap="round" stroke-linejoin="round"/>
<path d="M40.0001 55C42.7615 55 45.0001 52.7614 45.0001 50C45.0001 47.2386 42.7615 45 40.0001 45C37.2387 45 35.0001 47.2386 35.0001 50C35.0001 52.7614 37.2387 55 40.0001 55Z" stroke="white" stroke-width="1.5" stroke-linecap="round" stroke-linejoin="round"/>
<path d="M54.9989 30.0001V35.0001H47.4989C46.1239 35.0001 44.9989 33.8751 44.9989 32.5001V25.0001C44.9989 23.6251 46.1239 22.5001 47.4989 22.5001H50.7239L54.9989 30.0001Z" stroke="white" stroke-width="1.5" stroke-linecap="round" stroke-linejoin="round"/>
<path d="M5.00079 20.0001H20.0008" stroke="white" stroke-width="1.5" stroke-linecap="round" stroke-linejoin="round"/>
<path d="M5.00079 27.4999H15.0008" stroke="white" stroke-width="1.5" stroke-linecap="round" stroke-linejoin="round"/>
<path d="M5.00079 35.0001H10.0008" stroke="white" stroke-width="1.5" stroke-linecap="round" stroke-linejoin="round"/>
</svg>
