<svg width="30" height="15" viewBox="0 0 30 15" fill="none" xmlns="http://www.w3.org/2000/svg">
<path fill-rule="evenodd" clip-rule="evenodd" d="M29.3501 7.69565C29.3501 7.48043 29.241 7.27403 29.0468 7.12185C28.8525 6.96967 28.5891 6.88417 28.3144 6.88417L3.88765 6.88417L10.406 1.77834C10.6005 1.62596 10.7097 1.4193 10.7097 1.20381C10.7097 0.988318 10.6005 0.781654 10.406 0.62928C10.2116 0.476906 9.9478 0.391303 9.67278 0.391303C9.39776 0.391303 9.13401 0.476906 8.93954 0.62928L0.654358 7.12112C0.557912 7.1965 0.481392 7.28605 0.429182 7.38464C0.376972 7.48323 0.350098 7.58891 0.350098 7.69565C0.350098 7.80239 0.376972 7.90808 0.429182 8.00666C0.481392 8.10525 0.557912 8.1948 0.654358 8.27018L8.93954 14.762C9.03583 14.8375 9.15015 14.8973 9.27596 14.9382C9.40176 14.979 9.53661 15 9.67278 15C9.9478 15 10.2116 14.9144 10.406 14.762C10.6005 14.6096 10.7097 14.403 10.7097 14.1875C10.7097 13.972 10.6005 13.7653 10.406 13.613L3.88765 8.50713L28.3144 8.50713C28.5891 8.50713 28.8525 8.42164 29.0468 8.26945C29.241 8.11727 29.3501 7.91087 29.3501 7.69565Z" fill="#C4C4C4"/>
</svg>
