<svg width="30" height="15" viewBox="0 0 30 15" fill="none" xmlns="http://www.w3.org/2000/svg">
<path fill-rule="evenodd" clip-rule="evenodd" d="M0.649904 7.30435C0.649904 7.51957 0.759016 7.72597 0.953238 7.87815C1.14746 8.03033 1.41088 8.11583 1.68555 8.11583L26.1123 8.11583L19.594 13.2217C19.3995 13.374 19.2903 13.5807 19.2903 13.7962C19.2903 14.0117 19.3995 14.2183 19.594 14.3707C19.7884 14.5231 20.0522 14.6087 20.3272 14.6087C20.6022 14.6087 20.866 14.5231 21.0605 14.3707L29.3456 7.87888C29.4421 7.8035 29.5186 7.71395 29.5708 7.61536C29.623 7.51677 29.6499 7.41109 29.6499 7.30435C29.6499 7.19761 29.623 7.09192 29.5708 6.99334C29.5186 6.89475 29.4421 6.8052 29.3456 6.72982L21.0605 0.237977C20.9642 0.162529 20.8499 0.102681 20.724 0.0618484C20.5982 0.0210161 20.4634 0 20.3272 0C20.0522 0 19.7884 0.0856028 19.594 0.237977C19.3995 0.390351 19.2903 0.597016 19.2903 0.812505C19.2903 1.028 19.3995 1.23466 19.594 1.38703L26.1123 6.49287L1.68555 6.49287C1.41088 6.49287 1.14746 6.57836 0.953238 6.73055C0.759016 6.88273 0.649904 7.08913 0.649904 7.30435Z" fill="#C4C4C4"/>
</svg>
