<svg width="17" height="13" viewBox="0 0 17 13" fill="none" xmlns="http://www.w3.org/2000/svg">
<path d="M16.2616 2.12117C16.6522 1.73064 16.6522 1.09748 16.2616 0.706956C15.8711 0.316431 15.238 0.316431 14.8474 0.706956L4.94794 10.6065C4.55741 10.997 4.55741 11.6301 4.94794 12.0207C5.33846 12.4112 5.97163 12.4112 6.36215 12.0207L16.2616 2.12117Z" fill="white"/>
<path d="M0.707108 7.7784C0.316584 7.38787 0.316584 6.75471 0.707108 6.36418C1.09763 5.97366 1.7308 5.97366 2.12132 6.36418L6.36396 10.6068C6.75449 10.9973 6.75449 11.6305 6.36396 12.021C5.97344 12.4116 5.34027 12.4116 4.94975 12.021L0.707108 7.7784Z" fill="white"/>
</svg>
