<svg width="16" height="16" viewBox="0 0 16 16" fill="none" xmlns="http://www.w3.org/2000/svg">
<path d="M14.6467 12.22C14.6467 12.46 14.5933 12.7067 14.48 12.9467C14.3667 13.1867 14.22 13.4133 14.0267 13.6267C13.7 13.9867 13.34 14.2467 12.9333 14.4133C12.5333 14.58 12.1 14.6667 11.6333 14.6667C10.9533 14.6667 10.2267 14.5067 9.46 14.18C8.69334 13.8533 7.92667 13.4133 7.16667 12.86C6.4 12.3 5.67334 11.68 4.98 10.9933C4.29334 10.3 3.67334 9.57334 3.12 8.81334C2.57334 8.05334 2.13334 7.29334 1.81334 6.54C1.49334 5.78 1.33334 5.05334 1.33334 4.36C1.33334 3.90667 1.41334 3.47334 1.57334 3.07334C1.73334 2.66667 1.98667 2.29334 2.34 1.96C2.76667 1.54 3.23334 1.33334 3.72667 1.33334C3.91334 1.33334 4.1 1.37334 4.26667 1.45334C4.44 1.53334 4.59334 1.65334 4.71334 1.82667L6.26 4.00667C6.38 4.17334 6.46667 4.32667 6.52667 4.47334C6.58667 4.61334 6.62 4.75334 6.62 4.88C6.62 5.04 6.57334 5.2 6.48 5.35334C6.39334 5.50667 6.26667 5.66667 6.10667 5.82667L5.6 6.35334C5.52667 6.42667 5.49334 6.51334 5.49334 6.62C5.49334 6.67334 5.5 6.72 5.51334 6.77334C5.53334 6.82667 5.55334 6.86667 5.56667 6.90667C5.68667 7.12667 5.89334 7.41334 6.18667 7.76C6.48667 8.10667 6.80667 8.46 7.15334 8.81334C7.51334 9.16667 7.86 9.49334 8.21334 9.79334C8.56 10.0867 8.84667 10.2867 9.07334 10.4067C9.10667 10.42 9.14667 10.44 9.19334 10.46C9.24667 10.48 9.3 10.4867 9.36 10.4867C9.47334 10.4867 9.56 10.4467 9.63334 10.3733L10.14 9.87334C10.3067 9.70667 10.4667 9.58 10.62 9.5C10.7733 9.40667 10.9267 9.36 11.0933 9.36C11.22 9.36 11.3533 9.38667 11.5 9.44667C11.6467 9.50667 11.8 9.59334 11.9667 9.70667L14.1733 11.2733C14.3467 11.3933 14.4667 11.5333 14.54 11.7C14.6067 11.8667 14.6467 12.0333 14.6467 12.22Z" stroke="black" stroke-miterlimit="10"/>
</svg>
