<svg width="61" height="60" viewBox="0 0 61 60" fill="none" xmlns="http://www.w3.org/2000/svg">
<path d="M26.8805 42.1509V47.226C26.8805 51.526 22.8804 55.0009 17.9554 55.0009C13.0304 55.0009 9.0054 51.526 9.0054 47.226V42.1509C9.0054 46.4509 13.0054 49.5009 17.9554 49.5009C22.8804 49.5009 26.8805 46.4259 26.8805 42.1509Z" stroke="white" stroke-width="1.5" stroke-linecap="round" stroke-linejoin="round"/>
<path d="M26.8747 35.275C26.8747 36.525 26.5247 37.6749 25.9247 38.6749C24.4497 41.0999 21.4247 42.625 17.9247 42.625C14.4247 42.625 11.3997 41.0749 9.92465 38.6749C9.32465 37.6749 8.97479 36.525 8.97479 35.275C8.97479 33.125 9.97474 31.2 11.5747 29.8C13.1997 28.375 15.4247 27.525 17.8997 27.525C20.3747 27.525 22.5997 28.4 24.2247 29.8C25.8747 31.175 26.8747 33.125 26.8747 35.275Z" stroke="white" stroke-width="1.5" stroke-linecap="round" stroke-linejoin="round"/>
<path d="M26.8805 35.275V42.15C26.8805 46.45 22.8804 49.5 17.9554 49.5C13.0304 49.5 9.0054 46.425 9.0054 42.15V35.275C9.0054 30.975 13.0054 27.5 17.9554 27.5C20.4304 27.5 22.6555 28.3749 24.2805 29.7749C25.8805 31.1749 26.8805 33.125 26.8805 35.275Z" stroke="white" stroke-width="1.5" stroke-linecap="round" stroke-linejoin="round"/>
<path d="M55.0017 27.4253V32.5754C55.0017 33.9504 53.9017 35.0753 52.5017 35.1253H47.6017C44.9017 35.1253 42.4267 33.1503 42.2017 30.4503C42.0517 28.8753 42.6517 27.4003 43.7017 26.3753C44.6267 25.4253 45.9017 24.8754 47.3017 24.8754H52.5017C53.9017 24.9254 55.0017 26.0503 55.0017 27.4253Z" stroke="white" stroke-width="1.5" stroke-linecap="round" stroke-linejoin="round"/>
<path d="M5.00143 26.2501V21.2501C5.00143 14.4501 9.10144 9.70012 15.4764 8.90012C16.1264 8.80012 16.8014 8.75012 17.5014 8.75012H40.0014C40.6514 8.75012 41.2764 8.77509 41.8764 8.87509C48.3264 9.62509 52.5014 14.4001 52.5014 21.2501V24.8752H47.3014C45.9014 24.8752 44.6264 25.4251 43.7014 26.3751C42.6514 27.4001 42.0514 28.8751 42.2014 30.4501C42.4264 33.1501 44.9014 35.1251 47.6014 35.1251H52.5014V38.7501C52.5014 46.2501 47.5014 51.2501 40.0014 51.2501H33.7514" stroke="white" stroke-width="1.5" stroke-linecap="round" stroke-linejoin="round"/>
</svg>
