<svg width="60" height="60" viewBox="0 0 60 60" fill="none" xmlns="http://www.w3.org/2000/svg">
<path d="M5.17221 11.5002C7.17221 2.8502 20.1972 2.8502 22.1722 11.5002C23.3472 16.5752 20.1222 20.8752 17.3222 23.5502C15.2722 25.5002 12.0472 25.4752 9.99721 23.5502C7.22221 20.8752 3.99721 16.5752 5.17221 11.5002Z" stroke="white" stroke-width="1.5"/>
<path d="M37.676 41.5001C39.676 32.8501 52.776 32.8501 54.776 41.5001C55.951 46.5751 52.726 50.8751 49.901 53.5501C47.851 55.5001 44.601 55.4751 42.551 53.5501C39.726 50.8751 36.501 46.5751 37.676 41.5001Z" stroke="white" stroke-width="1.5"/>
<path d="M29.9963 12.4999H36.6963C41.3213 12.4999 43.4713 18.2249 39.9963 21.2749L20.0213 38.7499C16.5463 41.7749 18.6963 47.4999 23.2963 47.4999H29.9963" stroke="white" stroke-width="1.5" stroke-linecap="round" stroke-linejoin="round"/>
<path d="M13.7153 13.7499H13.7442" stroke="white" stroke-width="2" stroke-linecap="round" stroke-linejoin="round"/>
<path d="M46.2153 43.7499H46.2442" stroke="white" stroke-width="2" stroke-linecap="round" stroke-linejoin="round"/>
</svg>
