<svg width="61" height="60" viewBox="0 0 61 60" fill="none" xmlns="http://www.w3.org/2000/svg">
<path d="M36.0996 47.6249L39.8996 51.4249L47.4996 43.825" stroke="white" stroke-width="1.5" stroke-linecap="round" stroke-linejoin="round"/>
<path d="M30.4005 27.1748C30.1505 27.1498 29.8505 27.1498 29.5755 27.1748C23.6255 26.9748 18.9005 22.0998 18.9005 16.0998C18.8755 9.97476 23.8505 4.99976 29.9755 4.99976C36.1005 4.99976 41.0755 9.97476 41.0755 16.0998C41.0755 22.0998 36.3255 26.9748 30.4005 27.1748Z" stroke="white" stroke-width="1.5" stroke-linecap="round" stroke-linejoin="round"/>
<path d="M29.9746 54.5251C25.4246 54.5251 20.8996 53.3751 17.4496 51.0751C11.3996 47.0251 11.3996 40.4251 17.4496 36.4001C24.3246 31.8001 35.5996 31.8001 42.4746 36.4001" stroke="white" stroke-width="1.5" stroke-linecap="round" stroke-linejoin="round"/>
</svg>
