<svg width="17" height="17" viewBox="0 0 17 17" fill="none" xmlns="http://www.w3.org/2000/svg">
<path d="M9.76533 8.5L16.174 0.86084C16.2814 0.733887 16.1911 0.541016 16.0251 0.541016H14.0769C13.9621 0.541016 13.8522 0.592285 13.7766 0.680176L8.49092 6.98145L3.20527 0.680176C3.13203 0.592285 3.02217 0.541016 2.90498 0.541016H0.956739C0.790723 0.541016 0.700391 0.733887 0.807813 0.86084L7.2165 8.5L0.807813 16.1392C0.783749 16.1675 0.768312 16.2021 0.763332 16.2389C0.758352 16.2757 0.76404 16.3132 0.77972 16.3468C0.795401 16.3805 0.820415 16.409 0.851792 16.4288C0.88317 16.4487 0.919594 16.4592 0.956739 16.459H2.90498C3.01973 16.459 3.12959 16.4077 3.20527 16.3198L8.49092 10.0186L13.7766 16.3198C13.8498 16.4077 13.9597 16.459 14.0769 16.459H16.0251C16.1911 16.459 16.2814 16.2661 16.174 16.1392L9.76533 8.5Z" fill="black"/>
</svg>
